<?xml version="1.0" encoding="utf-8"?>
<!-- Generator: Adobe Illustrator 16.0.0, SVG Export Plug-In . SVG Version: 6.00 Build 0)  -->
<!DOCTYPE svg PUBLIC "-//W3C//DTD SVG 1.1//EN" "http://www.w3.org/Graphics/SVG/1.1/DTD/svg11.dtd">
<svg version="1.1" id="Layer_1" xmlns="http://www.w3.org/2000/svg" xmlns:xlink="http://www.w3.org/1999/xlink" x="0px" y="0px"
	 width="61.349px" height="61.686px" viewBox="0 0 61.349 61.686" enable-background="new 0 0 61.349 61.686" xml:space="preserve">
<g>
	<path fill-rule="evenodd" clip-rule="evenodd" fill="#57CBF5" d="M54.096,58.246c-0.314-0.119-0.558-0.187-0.777-0.301
		c-0.194-0.103-0.365-0.253-0.543-0.387c-2.757-2.048-1.911-1.435-5.028-0.295c-0.408,0.148-0.696,0.853-0.87,1.356
		c-0.214,0.623-0.26,1.306-0.364,1.965c-0.12,0.761-0.589,1.09-1.324,1.094c-1.02,0.006-2.038,0.006-3.058,0.007
		c-0.797,0-1.233-0.418-1.365-1.185c-0.011-0.063-0.009-0.128-0.019-0.19c-0.622-3.767-0.188-2.491-3.503-4.063
		c-0.354-0.168-0.987,0.045-1.398,0.259c-0.644,0.335-1.199,0.834-1.81,1.239c-0.605,0.402-1.203,0.374-1.73-0.15
		c-0.722-0.72-1.432-1.45-2.143-2.181c-0.554-0.569-0.563-1.171-0.096-1.801c0.341-0.46,0.673-0.928,1.007-1.394
		c0.129-0.181,0.273-0.355,0.376-0.552c0.615-1.174-0.845-4.164-2.148-4.408c-0.687-0.129-1.375-0.253-2.064-0.375
		c-0.697-0.123-1.063-0.53-1.067-1.242c-0.005-1.051-0.01-2.102-0.002-3.153c0.006-0.753,0.421-1.166,1.142-1.301
		c0.063-0.012,0.128-0.008,0.19-0.02c3.798-0.655,2.538-0.169,4.089-3.476c0.169-0.361-0.013-0.991-0.221-1.4
		c-0.328-0.646-0.818-1.209-1.236-1.811c-0.445-0.642-0.409-1.243,0.159-1.799c0.706-0.69,1.414-1.379,2.114-2.074
		c0.556-0.552,1.145-0.638,1.792-0.164c0.514,0.376,1.031,0.748,1.549,1.116c0.182,0.129,0.358,0.276,0.56,0.364
		c1.212,0.528,4.203-1.094,4.42-2.388c0.1-0.596,0.188-1.193,0.293-1.788c0.136-0.765,0.573-1.173,1.378-1.163
		c1.019,0.013,2.038,0.015,3.058,0.005c0.767-0.007,1.17,0.398,1.328,1.108c0.021,0.093,0.029,0.189,0.044,0.283
		c0.474,3.094,0.544,3.213,3.467,4.093c0.411,0.123,0.996-0.056,1.407-0.271c0.643-0.339,1.203-0.83,1.801-1.252
		c0.614-0.434,1.188-0.371,1.715,0.158c0.695,0.7,1.39,1.401,2.083,2.105c0.576,0.583,0.641,1.211,0.152,1.882
		c-0.038,0.052-0.064,0.114-0.11,0.155c-1.769,1.558-1.653,3.333-0.529,5.162c0.254,0.412,0.727,0.786,1.182,0.957
		c0.644,0.241,1.362,0.291,2.054,0.398c0.854,0.133,1.299,0.604,1.298,1.479c-0.001,0.955,0.005,1.911-0.001,2.867
		c-0.005,0.816-0.39,1.313-1.223,1.437c-0.565,0.084-1.125,0.252-1.691,0.277c-1.044,0.047-1.43,0.688-1.938,1.521
		c-1.08,1.773-0.741,3.153,0.546,4.605c0.835,0.942,0.717,1.411-0.169,2.292c-0.61,0.606-1.211,1.224-1.847,1.802
		C54.755,57.898,54.405,58.054,54.096,58.246z M36.482,44.032c-0.014,4.09,3.146,7.31,7.201,7.336
		c4.065,0.027,7.385-3.266,7.369-7.311c-0.015-3.978-3.358-7.289-7.343-7.271C39.737,36.805,36.495,40.055,36.482,44.032z"/>
	<path fill-rule="evenodd" clip-rule="evenodd" fill="#2A276F" d="M27.748,51.64c0.466,0.014,0.934,0.015,1.401,0.005
		c-0.297-1.592-1.535-3.56-2.674-3.772c-0.822-0.154-1.644-0.303-2.468-0.447c-0.833-0.147-1.271-0.636-1.275-1.486
		c-0.007-1.257-0.012-2.513-0.002-3.77c0.006-0.901,0.504-1.395,1.365-1.556c0.074-0.015,0.152-0.01,0.227-0.023
		c0.339-0.059,0.642-0.108,0.917-0.154c-5.042-1.518-8.785-6.268-8.759-11.756c0.032-6.697,5.601-12.21,12.289-12.166
		c5.406,0.036,10.078,3.724,11.615,8.649c0.034-0.206,0.066-0.412,0.103-0.618c0.163-0.914,0.686-1.402,1.647-1.39
		c1.218,0.015,2.437,0.018,3.655,0.006c0.917-0.008,1.399,0.477,1.589,1.325c0.024,0.111,0.035,0.226,0.053,0.338
		c0.565,3.699,0.649,3.841,4.145,4.893c0.016,0.005,0.031,0.006,0.047,0.01c0.01-1.063,0.034-2.135-0.079-3.188
		c-0.123-1.148,0.248-1.983,1.186-2.611c1.058-0.709,2.12-1.412,3.162-2.144c0.969-0.681,1.277-1.607,0.818-2.67
		c-0.73-1.693-1.503-3.369-2.306-5.029c-0.486-1.005-1.378-1.37-2.469-1.092c-1.2,0.307-2.395,0.638-3.593,0.953
		c-1.037,0.272-1.918,0.077-2.693-0.734c-0.836-0.872-1.743-1.677-2.646-2.481c-0.786-0.701-1.088-1.527-0.864-2.564
		c0.261-1.212,0.502-2.427,0.729-3.646c0.232-1.247-0.24-2.098-1.43-2.553c-1.573-0.602-3.152-1.188-4.736-1.76
		c-1.31-0.472-2.164-0.147-2.891,1.073c-0.554,0.93-1.139,1.845-1.627,2.808c-0.621,1.226-1.553,1.761-2.927,1.688
		c-0.983-0.052-1.98-0.025-2.958,0.083c-1.104,0.121-1.926-0.228-2.538-1.136c-0.675-1.004-1.349-2.009-2.038-3.003
		c-0.819-1.181-1.764-1.46-3.051-0.886c-1.481,0.661-2.955,1.338-4.423,2.026c-1.327,0.622-1.7,1.436-1.332,2.866
		c0.3,1.169,0.59,2.343,0.935,3.5c0.31,1.038,0.009,1.856-0.722,2.6c-0.803,0.817-1.589,1.652-2.352,2.507
		c-0.693,0.775-1.485,1.134-2.544,0.902c-1.21-0.265-2.435-0.466-3.656-0.681c-1.339-0.235-2.139,0.2-2.624,1.455
		c-0.595,1.542-1.167,3.093-1.734,4.645c-0.493,1.348-0.164,2.229,1.095,2.969c0.988,0.58,1.97,1.171,2.979,1.714
		c1.035,0.558,1.508,1.377,1.476,2.56c-0.027,1.016-0.026,2.044,0.103,3.05c0.15,1.176-0.192,2.062-1.161,2.719
		C3.708,34.345,2.7,35.014,1.704,35.7c-1.176,0.81-1.436,1.733-0.842,3.054c0.652,1.449,1.324,2.891,1.994,4.332
		c0.671,1.443,1.462,1.824,2.984,1.43c1.138-0.294,2.283-0.571,3.404-0.922c1.05-0.329,1.86,0.013,2.597,0.729
		c0.708,0.688,1.378,1.429,2.158,2.025c1.086,0.83,1.346,1.857,1.067,3.123c-0.232,1.055-0.438,2.116-0.645,3.177
		c-0.282,1.453,0.19,2.286,1.6,2.82c1.486,0.563,2.974,1.122,4.464,1.673c1.371,0.507,2.244,0.203,2.985-1.048
		c0.584-0.985,1.167-1.972,1.715-2.978C25.746,52.087,26.562,51.604,27.748,51.64z"/>
</g>
</svg>
