<?xml version="1.0" encoding="utf-8"?>
<!-- Generator: Adobe Illustrator 16.0.0, SVG Export Plug-In . SVG Version: 6.00 Build 0)  -->
<!DOCTYPE svg PUBLIC "-//W3C//DTD SVG 1.1//EN" "http://www.w3.org/Graphics/SVG/1.1/DTD/svg11.dtd">
<svg version="1.1" id="Layer_1" xmlns="http://www.w3.org/2000/svg" xmlns:xlink="http://www.w3.org/1999/xlink" x="0px" y="0px"
	 width="72.764px" height="54.301px" viewBox="0 0 72.764 54.301" enable-background="new 0 0 72.764 54.301" xml:space="preserve">
<path fill="#2A276F" d="M0,5.43C0,2.431,2.431,0,5.431,0h61.903c2.999,0,5.43,2.431,5.43,5.43s-2.431,5.431-5.43,5.431H5.431
	C2.431,10.86,0,8.429,0,5.43z M67.334,21.449H5.431c-3,0-5.431,2.431-5.431,5.43c0,3,2.431,5.43,5.431,5.43h61.903
	c2.999,0,5.43-2.43,5.43-5.43C72.764,23.88,70.333,21.449,67.334,21.449z M67.334,43.441H5.431c-3,0-5.431,2.43-5.431,5.43
	c0,2.998,2.431,5.43,5.431,5.43h61.903c2.999,0,5.43-2.432,5.43-5.43C72.764,45.871,70.333,43.441,67.334,43.441z"/>
</svg>
