<?xml version="1.0" encoding="utf-8"?>
<!-- Generator: Adobe Illustrator 16.0.0, SVG Export Plug-In . SVG Version: 6.00 Build 0)  -->
<!DOCTYPE svg PUBLIC "-//W3C//DTD SVG 1.1//EN" "http://www.w3.org/Graphics/SVG/1.1/DTD/svg11.dtd">
<svg version="1.1" id="Layer_1" xmlns="http://www.w3.org/2000/svg" xmlns:xlink="http://www.w3.org/1999/xlink" x="0px" y="0px"
	 width="66.695px" height="66.869px" viewBox="0 0 66.695 66.869" enable-background="new 0 0 66.695 66.869" xml:space="preserve">
<g>
	<path fill="#2A276F" d="M33.26,0c-1.252,0-2.487,0.071-3.703,0.205l0.621,7.302C31.19,7.388,32.216,7.32,33.26,7.32
		c14.423,0,26.114,11.692,26.114,26.115c0,14.423-11.691,26.115-26.114,26.115c-1.106,0-2.194-0.077-3.264-0.211l-0.564,7.311
		c1.257,0.144,2.533,0.219,3.828,0.219c18.465,0,33.435-14.969,33.435-33.434C66.695,14.969,51.725,0,33.26,0z"/>
	<path fill="#57CBF5" d="M19.532,11.225l-3.949-6.166c1.973-1.232,4.082-2.27,6.303-3.073l2.597,6.85
		C22.739,9.458,21.083,10.264,19.532,11.225z M8.643,24.717l-7.124-1.806C0.768,25.176,0.251,27.548,0,29.999l7.321,0.442
		C7.548,28.457,7.996,26.541,8.643,24.717z M4.831,51.037c1.362,2.196,2.971,4.225,4.789,6.042l5.162-5.19
		c-1.396-1.397-2.63-2.955-3.682-4.639L4.831,51.037z M7.317,36.402l-7.275,0.836c0.282,2.493,0.838,4.903,1.638,7.199l7.002-2.162
		C8.011,40.408,7.548,38.44,7.317,36.402z M15.353,61.672c2.107,1.34,4.375,2.448,6.767,3.294l2.411-6.916
		c-1.863-0.661-3.626-1.528-5.267-2.573L15.353,61.672z M14.763,15.009l-5.152-5.2c-1.809,1.81-3.409,3.828-4.767,6.012l6.34,3.677
		C12.213,17.873,13.411,16.366,14.763,15.009z M33.467,33.578c3.754,0,6.796-3.043,6.796-6.797c0-3.753-3.042-6.797-6.796-6.797
		c-3.753,0-6.796,3.043-6.796,6.797C26.671,30.535,29.714,33.578,33.467,33.578z M19.969,46.885h26.756
		c-1.053-4.737-2.01-12.638-14.023-12.829C20.688,33.865,19.969,46.885,19.969,46.885z"/>
</g>
</svg>
