<?xml version="1.0" encoding="utf-8"?>
<!-- Generator: Adobe Illustrator 16.0.0, SVG Export Plug-In . SVG Version: 6.00 Build 0)  -->
<!DOCTYPE svg PUBLIC "-//W3C//DTD SVG 1.1//EN" "http://www.w3.org/Graphics/SVG/1.1/DTD/svg11.dtd">
<svg version="1.1" id="Layer_1" xmlns="http://www.w3.org/2000/svg" xmlns:xlink="http://www.w3.org/1999/xlink" x="0px" y="0px"
	 width="78.393px" height="78.393px" viewBox="0 0 78.393 78.393" enable-background="new 0 0 78.393 78.393" xml:space="preserve">
<g>
	<circle fill-rule="evenodd" clip-rule="evenodd" fill="#2A2E6D" cx="39.196" cy="39.196" r="39.196"/>
	<path fill-rule="evenodd" clip-rule="evenodd" fill="#FFFFFF" d="M44.08,54.569c0.31,0.676,0.48,1.428,0.48,2.221
		c0,2.963-2.401,5.365-5.364,5.365c-2.965,0-5.365-2.402-5.365-5.365c0-0.775,0.163-1.51,0.46-2.174
		c0.051-0.117,0.122-0.238,0.233-0.303c0.098-0.061,0.398-0.041,0.398-0.041h8.562c0,0,0.282,0.008,0.378,0.066
		C43.957,54.396,44.034,54.468,44.08,54.569z M50.658,33.275c0.354-8.988-4.603-11.853-8.132-12.758
		c0.067-0.268,0.113-0.545,0.113-0.834c0-1.903-1.542-3.445-3.443-3.445c-1.902,0-3.445,1.542-3.445,3.445
		c0,0.269,0.039,0.527,0.096,0.777c-9.58,2.087-8.039,12.815-8.039,12.815H50.658z M50.714,40.329v-4.968H27.753v5.316
		l-6.564,11.426h36.016L50.714,40.329z"/>
</g>
</svg>
