<?xml version="1.0" encoding="utf-8"?>
<!-- Generator: Adobe Illustrator 16.0.0, SVG Export Plug-In . SVG Version: 6.00 Build 0)  -->
<!DOCTYPE svg PUBLIC "-//W3C//DTD SVG 1.1//EN" "http://www.w3.org/Graphics/SVG/1.1/DTD/svg11.dtd">
<svg version="1.1" id="Layer_1" xmlns="http://www.w3.org/2000/svg" xmlns:xlink="http://www.w3.org/1999/xlink" x="0px" y="0px"
	 width="78.393px" height="78.393px" viewBox="0 0 78.393 78.393" enable-background="new 0 0 78.393 78.393" xml:space="preserve">
<circle fill-rule="evenodd" clip-rule="evenodd" fill="#2A2E6D" cx="39.196" cy="39.196" r="39.196"/>
<g>
	<path fill-rule="evenodd" clip-rule="evenodd" fill="#FFFFFF" d="M31.018,28.252c1.252-2.455,3.243-3.749,6.129-3.99
		c-2.787-1.849-3.692-3.806-2.999-6.259c0.578-2.045,2.543-3.581,4.667-3.644c2.23-0.069,4.257,1.309,4.989,3.39
		c0.843,2.398,0.031,4.333-2.767,6.507c2.774,0.294,4.814,1.59,6.01,4.117c0.398,0.843,0.331,1.451-0.473,2.083
		c-4.283,3.374-10.738,3.408-15.02,0.079C30.682,29.855,30.522,29.218,31.018,28.252z M29.854,52.186
		c-1.239-1.166-2.932-1.848-4.316-2.684c2.348-1.803,3.16-3.796,2.324-6.182c-0.702-2.007-2.778-3.462-4.866-3.413
		c-2.158,0.05-4.071,1.487-4.744,3.563c-0.768,2.372,0.053,4.299,2.725,6.302c-0.467,0.113-0.889,0.217-1.31,0.32
		c-2.095,0.51-3.568,1.778-4.558,3.673c-0.515,0.982-0.418,1.678,0.551,2.394c3.988,2.948,9.271,3.305,13.555,0.82
		C31.834,55.459,32.095,54.293,29.854,52.186z M63.368,54.006c-1.166-2.509-3.185-3.794-6.048-4.188
		c2.658-1.876,3.547-3.836,2.892-6.114c-0.628-2.188-2.472-3.67-4.707-3.786c-2.07-0.11-4.165,1.301-4.924,3.314
		c-0.896,2.378-0.146,4.285,2.638,6.584c-2.713,0.374-4.738,1.647-5.942,4.125c-0.459,0.942-0.257,1.53,0.565,2.164
		c4.37,3.369,10.641,3.36,15.009-0.027C63.638,55.468,63.774,54.881,63.368,54.006z M41.019,55.229
		c2.657-1.876,3.546-3.836,2.892-6.113c-0.629-2.188-2.473-3.671-4.708-3.789c-2.07-0.108-4.166,1.305-4.925,3.316
		c-0.896,2.378-0.146,4.284,2.638,6.586c-2.713,0.37-4.737,1.646-5.942,4.123c-0.458,0.941-0.255,1.529,0.566,2.162
		c4.37,3.371,10.642,3.362,15.01-0.026c0.787-0.61,0.924-1.196,0.517-2.071C45.9,56.91,43.882,55.624,41.019,55.229z"/>
	<path fill="none" stroke="#FFFFFF" stroke-width="1.3732" stroke-miterlimit="10" d="M39.361,36.698v4.934 M37.703,40.303
		l1.776,1.673l1.541-1.673 M41.02,37.73l-1.776-1.675l-1.541,1.675 M47.65,34.321l3.273,3.691 M48.802,38.12l2.438,0.073
		l0.043-2.274 M49.576,33.993l-2.439-0.076l-0.043,2.277 M30.536,33.919l-3.415,3.561 M26.843,35.374l0.124,2.437l2.27-0.142
		 M31.018,35.812l-0.123-2.438l-2.271,0.142"/>
</g>
</svg>
