<?xml version="1.0" encoding="utf-8"?>
<!-- Generator: Adobe Illustrator 16.0.0, SVG Export Plug-In . SVG Version: 6.00 Build 0)  -->
<!DOCTYPE svg PUBLIC "-//W3C//DTD SVG 1.1//EN" "http://www.w3.org/Graphics/SVG/1.1/DTD/svg11.dtd">
<svg version="1.1" id="Layer_1" xmlns="http://www.w3.org/2000/svg" xmlns:xlink="http://www.w3.org/1999/xlink" x="0px" y="0px"
	 width="78.75px" height="78.75px" viewBox="0 0 78.75 78.75" enable-background="new 0 0 78.75 78.75" xml:space="preserve">
<g>
	<circle fill="#FFFFFF" cx="39.375" cy="39.375" r="39.375"/>
	<circle fill="#52CAF4" cx="39.375" cy="39.375" r="31.029"/>
	<circle fill="#2C2E6E" stroke="#FFFFFF" stroke-width="0.7855" stroke-miterlimit="10" cx="39.375" cy="39.375" r="22.486"/>
	<g>
		<path fill="#57CBF5" d="M38.136,30.326c-1.688-1.119-2.238-2.305-1.817-3.792c0.351-1.24,1.541-2.169,2.827-2.208
			c1.351-0.042,2.579,0.793,3.018,2.054c0.508,1.452,0.018,2.625-1.671,3.942c1.676,0.177,2.91,0.962,3.633,2.494
			c0.242,0.511,0.201,0.879-0.285,1.261c-2.59,2.045-6.499,2.065-9.093,0.048c-0.529-0.41-0.625-0.797-0.325-1.382
			C35.181,31.257,36.388,30.473,38.136,30.326z"/>
		<path fill="#FFFFFF" d="M28.339,45.782c-1.619-1.213-2.115-2.38-1.651-3.816c0.408-1.26,1.567-2.13,2.875-2.16
			c1.265-0.028,2.523,0.853,2.948,2.067c0.508,1.445,0.014,2.654-1.407,3.746c0.837,0.506,1.864,0.921,2.614,1.624
			c1.358,1.278,1.201,1.985-0.385,2.906c-2.596,1.505-5.797,1.29-8.213-0.497c-0.587-0.435-0.646-0.855-0.333-1.45
			c0.599-1.148,1.492-1.916,2.761-2.226C27.801,45.915,28.059,45.852,28.339,45.782z M52.104,42.105
			c-0.382-1.325-1.499-2.223-2.852-2.293c-1.254-0.066-2.524,0.789-2.984,2.009c-0.542,1.439-0.088,2.595,1.6,3.99
			c-1.645,0.224-2.87,0.996-3.604,2.498c-0.277,0.569-0.153,0.925,0.344,1.31c2.647,2.044,6.448,2.036,9.095-0.017
			c0.479-0.37,0.56-0.725,0.313-1.255c-0.705-1.52-1.928-2.298-3.663-2.536C51.964,44.675,52.503,43.487,52.104,42.105z
			 M42.229,45.385c-0.378-1.325-1.493-2.224-2.848-2.294c-1.254-0.066-2.523,0.79-2.983,2.008c-0.544,1.441-0.089,2.597,1.598,3.99
			c-1.644,0.226-2.871,0.998-3.6,2.499c-0.278,0.571-0.156,0.927,0.343,1.311c2.646,2.042,6.446,2.035,9.088-0.017
			c0.474-0.369,0.558-0.726,0.312-1.255c-0.706-1.52-1.927-2.3-3.657-2.538C42.088,47.953,42.623,46.766,42.229,45.385z"/>
		<path fill="none" stroke="#FFFFFF" stroke-width="0.832" stroke-miterlimit="10" d="M39.479,37.861v2.99 M38.473,40.047
			l1.075,1.012l0.934-1.012 M40.481,38.487l-1.075-1.016l-0.934,1.016 M44.493,36.421l1.982,2.237 M45.189,38.721l1.478,0.045
			l0.027-1.377 M45.659,36.222l-1.478-0.045l-0.025,1.379 M34.13,36.178l-2.069,2.158 M31.893,37.059l0.075,1.477l1.375-0.085
			 M34.422,37.325l-0.075-1.477l-1.375,0.085"/>
	</g>
</g>
</svg>
