<?xml version="1.0" encoding="utf-8"?>
<!-- Generator: Adobe Illustrator 16.0.0, SVG Export Plug-In . SVG Version: 6.00 Build 0)  -->
<!DOCTYPE svg PUBLIC "-//W3C//DTD SVG 1.1//EN" "http://www.w3.org/Graphics/SVG/1.1/DTD/svg11.dtd">
<svg version="1.1" id="Layer_1" xmlns="http://www.w3.org/2000/svg" xmlns:xlink="http://www.w3.org/1999/xlink" x="0px" y="0px"
	 width="78.391px" height="78.391px" viewBox="0.001 0.001 78.391 78.391" enable-background="new 0.001 0.001 78.391 78.391"
	 xml:space="preserve">
<circle fill="#2A2E6D" cx="39.196" cy="39.196" r="39.196"/>
<path fill-rule="evenodd" clip-rule="evenodd" fill="#FFFFFF" d="M39.207,60.868c-7.2,0-14.4,0.002-21.601-0.001
	c-1.764-0.001-2.055-0.295-2.056-2.07c-0.003-8.599,0.013-17.196-0.021-25.794c-0.003-1.019,0.351-1.621,1.213-2.142
	c7.061-4.269,14.109-8.56,21.134-12.889c0.959-0.591,1.696-0.602,2.661-0.007c7.023,4.331,14.071,8.62,21.134,12.888
	c0.868,0.524,1.195,1.144,1.191,2.155c-0.033,8.641-0.018,17.281-0.021,25.921c0,1.657-0.272,1.936-1.906,1.937
	C53.693,60.871,46.449,60.868,39.207,60.868z M60.235,34.652c-0.515,0.295-0.914,0.513-1.301,0.75
	c-6.104,3.721-12.221,7.424-18.3,11.186c-1.035,0.642-1.838,0.675-2.891,0.022c-6.041-3.745-12.122-7.424-18.191-11.123
	c-0.418-0.254-0.851-0.489-1.359-0.781c0,7.96,0,15.757,0,23.554c14.058,0,28.018,0,42.042,0
	C60.235,50.419,60.235,42.642,60.235,34.652z M25.123,35.903c0-1.263-0.013-2.187,0.003-3.109c0.023-1.417,0.317-1.723,1.73-1.723
	c8.212-0.008,16.425-0.007,24.636-0.001c1.48,0.001,1.834,0.373,1.853,1.898c0.011,0.871,0.002,1.742,0.002,2.857
	c2.033-1.236,3.842-2.335,5.774-3.511c-6.588-4.021-12.968-7.933-19.383-11.785c-0.326-0.196-1.042-0.023-1.435,0.213
	c-6.045,3.651-12.068,7.339-18.094,11.023c-0.263,0.162-0.503,0.36-0.865,0.622C21.273,33.56,23.063,34.649,25.123,35.903z
	 M50.799,33.684c-7.811,0-15.41,0-23.13,0c0,1.119-0.053,2.17,0.03,3.212c0.027,0.34,0.334,0.77,0.639,0.959
	c3.377,2.093,6.771,4.161,10.188,6.188c0.316,0.187,0.927,0.214,1.232,0.033c3.489-2.071,6.952-4.191,10.402-6.325
	c0.279-0.173,0.588-0.542,0.609-0.839C50.845,35.869,50.799,34.817,50.799,33.684z"/>
<path fill-rule="evenodd" clip-rule="evenodd" fill="#2A2E6D" d="M60.235,34.652c0,7.99,0,15.767,0,23.608
	c-14.024,0-27.984,0-42.042,0c0-7.797,0-15.594,0-23.554c0.509,0.292,0.941,0.526,1.359,0.781c6.07,3.699,12.15,7.378,18.191,11.123
	c1.053,0.652,1.855,0.619,2.891-0.022c6.079-3.762,12.195-7.465,18.3-11.186C59.321,35.165,59.72,34.948,60.235,34.652z"/>
<path fill-rule="evenodd" clip-rule="evenodd" fill="#2A2E6D" d="M25.123,35.903c-2.06-1.254-3.85-2.342-5.778-3.516
	c0.362-0.262,0.602-0.46,0.865-0.622c6.026-3.684,12.049-7.372,18.094-11.023c0.393-0.237,1.108-0.409,1.435-0.213
	c6.415,3.853,12.795,7.764,19.383,11.785c-1.933,1.176-3.741,2.275-5.774,3.511c0-1.116,0.009-1.987-0.002-2.857
	c-0.019-1.526-0.372-1.897-1.853-1.898c-8.211-0.005-16.424-0.007-24.636,0.001c-1.414,0-1.707,0.307-1.73,1.723
	C25.11,33.716,25.123,34.639,25.123,35.903z"/>
<path fill-rule="evenodd" clip-rule="evenodd" fill="#2A2E6D" d="M50.799,33.684c0,1.133,0.046,2.186-0.029,3.229
	c-0.021,0.297-0.33,0.667-0.609,0.839c-3.45,2.133-6.913,4.253-10.402,6.325c-0.306,0.181-0.916,0.153-1.232-0.033
	c-3.417-2.027-6.811-4.096-10.188-6.188c-0.304-0.189-0.611-0.619-0.639-0.959c-0.083-1.042-0.03-2.093-0.03-3.212
	C35.389,33.684,42.989,33.684,50.799,33.684z"/>
<path fill-rule="evenodd" clip-rule="evenodd" fill="#FFFFFF" d="M49.574,45.494c0,5.31-4.304,9.613-9.613,9.613
	c-5.31,0-9.615-4.304-9.615-9.613c0-5.311,4.305-9.614,9.615-9.614C45.271,35.88,49.574,40.184,49.574,45.494z"/>
<path fill="#2A2E6D" d="M43.647,50.864l0.376,1.504c-1.208,0.411-2.51,0.616-3.903,0.616c-2.403,0-4.251-0.719-5.542-2.158
	c-1.118-1.247-1.677-2.767-1.677-4.56c0-1.973,0.662-3.624,1.985-4.954s2.965-1.995,4.925-1.995c1.838,0,3.357,0.548,4.559,1.644
	c1.202,1.096,1.803,2.479,1.803,4.149c0,1.266-0.383,2.318-1.147,3.156c-0.765,0.839-1.725,1.258-2.882,1.258
	c-0.616,0-1.109-0.113-1.479-0.342c-0.369-0.229-0.554-0.535-0.554-0.921c0-0.18,0.035-0.411,0.105-0.693l0.367-1.397
	c0.025-0.109,0.038-0.235,0.038-0.376c0-0.521-0.254-0.781-0.762-0.781c-0.314,0-0.589,0.121-0.824,0.361
	c-0.234,0.241-0.352,0.52-0.352,0.834c0,0.411,0.196,0.617,0.588,0.617c0.187,0,0.366-0.032,0.54-0.097l-0.867,2.391
	c-0.206,0.032-0.376,0.048-0.511,0.048c-0.701,0-1.258-0.207-1.673-0.622c-0.414-0.414-0.622-0.975-0.622-1.682
	c0-1.15,0.419-2.15,1.258-3.002s1.827-1.277,2.963-1.277c0.816,0,1.474,0.211,1.972,0.632s0.747,0.972,0.747,1.652
	c0,0.283-0.042,0.595-0.126,0.936l-0.289,1.166l-0.058,0.202c-0.052,0.187-0.077,0.347-0.077,0.482c0,0.308,0.142,0.462,0.424,0.462
	c0.438,0,0.836-0.312,1.195-0.935c0.36-0.623,0.54-1.314,0.54-2.072c0-1.278-0.445-2.316-1.335-3.113s-2.052-1.195-3.484-1.195
	c-1.542,0-2.816,0.52-3.821,1.557c-1.006,1.038-1.509,2.351-1.509,3.938c0,1.368,0.392,2.525,1.176,3.47
	c0.957,1.156,2.435,1.735,4.433,1.735C41.285,51.5,42.451,51.287,43.647,50.864z"/>
</svg>
